<?xml version="1.0" encoding="UTF-8"?>
<!DOCTYPE svg PUBLIC "-//W3C//DTD SVG 1.1//EN" "http://www.w3.org/Graphics/SVG/1.1/DTD/svg11.dtd">
<svg xmlns="http://www.w3.org/2000/svg" version="1.1" width="2000px" height="2000px" style="shape-rendering:geometricPrecision; text-rendering:geometricPrecision; image-rendering:optimizeQuality; fill-rule:evenodd; clip-rule:evenodd" xmlns:xlink="http://www.w3.org/1999/xlink">
<g><path style="opacity:1" fill="#f9faf9" d="M 1997.5,0.5 C 1998.83,1.16667 1998.83,1.16667 1997.5,0.5 Z"/></g>
<g><path style="opacity:1" fill="#000000" d="M 929.5,393.5 C 939.382,392.739 949.049,391.406 958.5,389.5C 1084.91,380.482 1195.24,417.648 1289.5,501C 1393.29,600.671 1438.46,722.505 1425,866.5C 1404.27,1010.6 1331.43,1119.1 1206.5,1192C 1107.23,1244.82 1002.9,1258.15 893.5,1232C 764.154,1195.97 669.987,1117.8 611,997.5C 564.978,894.113 558.978,788.447 593,680.5C 639.306,552.527 725.806,463.694 852.5,414C 877.666,404.817 903.332,397.984 929.5,393.5 Z"/></g>
<g><path style="opacity:1" fill="#e4e4e4" d="M 958.5,389.5 C 949.049,391.406 939.382,392.739 929.5,393.5C 929.611,392.883 929.944,392.383 930.5,392C 934.028,391.911 937.362,391.244 940.5,390C 946.491,389.501 952.491,389.334 958.5,389.5 Z"/></g>
<g><path style="opacity:1" fill="#efefef" d="M 929.5,393.5 C 903.332,397.984 877.666,404.817 852.5,414C 725.806,463.694 639.306,552.527 593,680.5C 558.978,788.447 564.978,894.113 611,997.5C 669.987,1117.8 764.154,1195.97 893.5,1232C 1002.9,1258.15 1107.23,1244.82 1206.5,1192C 1331.43,1119.1 1404.27,1010.6 1425,866.5C 1438.46,722.505 1393.29,600.671 1289.5,501C 1195.24,417.648 1084.91,380.482 958.5,389.5C 1085.73,378.07 1197.07,414.57 1292.5,499C 1371.8,573.902 1417.63,665.402 1430,773.5C 1438.4,871.832 1417.4,962.498 1367,1045.5C 1302.94,1144.91 1213.78,1209.08 1099.5,1238C 971.64,1264.93 854.307,1241.59 747.5,1168C 640.751,1087.31 581.251,980.472 569,847.5C 563.332,731.145 597.165,628.145 670.5,538.5C 736.143,462.189 818.143,414.022 916.5,394C 920.821,393.501 925.154,393.334 929.5,393.5 Z"/></g>
<g><path style="opacity:1" fill="#e8b711" d="M 781.5,609.5 C 847.419,610.229 909.085,626.729 966.5,659C 975.098,663.881 983.265,669.381 991,675.5C 992.663,790.086 992.996,904.753 992,1019.5C 989.28,1023.64 985.78,1024.48 981.5,1022C 957.113,1002.63 930.113,987.632 900.5,977C 862.602,963.754 823.602,955.754 783.5,953C 781.714,952.215 780.214,951.049 779,949.5C 778.333,837.167 778.333,724.833 779,612.5C 780.045,611.627 780.878,610.627 781.5,609.5 Z"/></g>
<g><path style="opacity:1" fill="#e7b611" d="M 1194.5,609.5 C 1202.17,609.334 1209.84,609.5 1217.5,610C 1218.33,610.833 1219.17,611.667 1220,612.5C 1220.67,724.833 1220.67,837.167 1220,949.5C 1218.79,951.049 1217.29,952.215 1215.5,953C 1154.89,955.983 1098.22,972.317 1045.5,1002C 1035.81,1008.18 1026.48,1014.84 1017.5,1022C 1013.22,1024.48 1009.72,1023.64 1007,1019.5C 1006.33,905.5 1006.33,791.5 1007,677.5C 1007.78,675.714 1008.95,674.214 1010.5,673C 1066.3,636.01 1127.63,614.843 1194.5,609.5 Z"/></g>
<g><path style="opacity:1" fill="#000000" d="M 791.5,622.5 C 851.207,625.461 907.207,641.294 959.5,670C 965.833,674.167 972.167,678.333 978.5,682.5C 979.833,789.5 979.833,896.5 978.5,1003.5C 939.578,976.903 896.912,958.736 850.5,949C 830.939,945.43 811.273,942.597 791.5,940.5C 791.5,834.5 791.5,728.5 791.5,622.5 Z"/></g>
<g><path style="opacity:1" fill="#000000" d="M 1021.5,1002.5 C 1020.5,896.001 1020.17,789.335 1020.5,682.5C 1076.97,644.901 1139.3,624.901 1207.5,622.5C 1207.5,728.5 1207.5,834.5 1207.5,940.5C 1139.76,944.635 1077.76,965.302 1021.5,1002.5 Z"/></g>
<g><path style="opacity:1" fill="#1f1900" d="M 1020.5,682.5 C 1020.17,789.335 1020.5,896.001 1021.5,1002.5C 1021.44,1003.04 1021.11,1003.38 1020.5,1003.5C 1019.17,896.334 1019.17,789.334 1020.5,682.5 Z"/></g>
<g><path style="opacity:1" fill="#e7b611" d="M 763.5,693.5 C 763.5,784.833 763.5,876.167 763.5,967.5C 769.167,967.5 774.833,967.5 780.5,967.5C 835.572,970.267 887.572,984.267 936.5,1009.5C 940.407,1016.11 938.574,1019.78 931,1020.5C 872.55,1007.44 813.384,1001.61 753.5,1003C 740.982,1004.03 728.482,1005.2 716,1006.5C 713.497,1006.01 711.497,1004.68 710,1002.5C 709.333,899.5 709.333,796.5 710,693.5C 711.109,691.185 712.943,689.685 715.5,689C 730.167,688.333 744.833,688.333 759.5,689C 761.751,689.748 763.084,691.248 763.5,693.5 Z"/></g>
<g><path style="opacity:1" fill="#e6b511" d="M 1222.5,967.5 C 1226.83,967.5 1231.17,967.5 1235.5,967.5C 1235.5,876.167 1235.5,784.833 1235.5,693.5C 1235.92,691.248 1237.25,689.748 1239.5,689C 1254.17,688.333 1268.83,688.333 1283.5,689C 1286.06,689.685 1287.89,691.185 1289,693.5C 1289.67,796.5 1289.67,899.5 1289,1002.5C 1287.11,1005.84 1284.28,1007.17 1280.5,1006.5C 1227.68,1000.6 1175.02,1001.76 1122.5,1010C 1103.97,1013.37 1085.47,1016.87 1067,1020.5C 1062.5,1020.67 1060.33,1018.5 1060.5,1014C 1060.35,1011.97 1061.02,1010.3 1062.5,1009C 1112.73,983.275 1166.07,969.441 1222.5,967.5 Z"/></g>
<g><path style="opacity:1" fill="#584506" d="M 1235.5,693.5 C 1235.5,784.833 1235.5,876.167 1235.5,967.5C 1231.17,967.5 1226.83,967.5 1222.5,967.5C 1226.3,966.517 1230.3,966.183 1234.5,966.5C 1234.17,875.332 1234.5,784.332 1235.5,693.5 Z"/></g>
<g><path style="opacity:1" fill="#705705" d="M 763.5,693.5 C 764.499,784.332 764.833,875.332 764.5,966.5C 770.026,966.179 775.36,966.512 780.5,967.5C 774.833,967.5 769.167,967.5 763.5,967.5C 763.5,876.167 763.5,784.833 763.5,693.5 Z"/></g>
<g><path style="opacity:1" fill="#060400" d="M 862.5,993.5 C 861.791,994.404 860.791,994.737 859.5,994.5C 813.897,988.828 768.231,988.161 722.5,992.5C 722.5,895.5 722.5,798.5 722.5,701.5C 732.167,701.5 741.833,701.5 751.5,701.5C 751.333,793.167 751.5,884.834 752,976.5C 752.5,977.667 753.333,978.5 754.5,979C 791.048,979.902 827.048,984.735 862.5,993.5 Z"/></g>
<g><path style="opacity:1" fill="#000000" d="M 1137.5,994.5 C 1137.5,994.167 1137.5,993.833 1137.5,993.5C 1172.49,984.144 1208.16,979.311 1244.5,979C 1246.05,977.786 1247.22,976.286 1248,974.5C 1248.5,883.501 1248.67,792.501 1248.5,701.5C 1257.83,701.5 1267.17,701.5 1276.5,701.5C 1276.5,798.5 1276.5,895.5 1276.5,992.5C 1230.09,988.062 1183.76,988.729 1137.5,994.5 Z"/></g>
<g><path style="opacity:1" fill="#765c09" d="M 862.5,993.5 C 865.132,994.327 867.798,995.16 870.5,996C 866.619,996.35 862.952,995.85 859.5,994.5C 860.791,994.737 861.791,994.404 862.5,993.5 Z"/></g>
<g><path style="opacity:1" fill="#735a07" d="M 1137.5,993.5 C 1137.5,993.833 1137.5,994.167 1137.5,994.5C 1134.72,995.82 1131.72,996.32 1128.5,996C 1131.47,995.007 1134.47,994.174 1137.5,993.5 Z"/></g>
<g><path style="opacity:1" fill="#f9faf9" d="M 1997.5,1997.5 C 1998.83,1998.17 1998.83,1998.17 1997.5,1997.5 Z"/></g>
</svg>
